<?xml version="1.0" encoding="UTF-8"?>
<svg width="126px" height="18px" viewBox="0 0 126 18" version="1.1" xmlns="http://www.w3.org/2000/svg" xmlns:xlink="http://www.w3.org/1999/xlink">
    <!-- Generator: Sketch 51.3 (57544) - http://www.bohemiancoding.com/sketch -->
    <title>weroes-green-black-on-white</title>
    <desc>Created with Sketch.</desc>
    <defs></defs>
    <g id="Page-1" stroke="none" stroke-width="1" fill="none" fill-rule="evenodd">
        <g id="weroes-green-black-on-white">
            <path d="M64.4242635,4.25051335 C64.1853709,4.0533871 63.815093,3.89322444 63.3134187,3.77002053 C62.8117444,3.64681663 62.3817443,3.58521561 62.0234055,3.58521561 C61.5456204,3.58521561 61.1514536,3.70225756 60.8408933,3.93634497 C60.530333,4.17043238 60.2556107,4.47843752 60.0167182,4.86036961 C59.7778257,5.2423017 59.57477,5.67966899 59.4075453,6.1724846 C59.2403205,6.66530021 59.0850427,7.17042862 58.9417071,7.68788501 L58.9417071,17.5564682 L55,17.5564682 L55,0.554414784 L58.0816983,0.554414784 L58.2608668,4.1026694 L58.4042016,4.1026694 C58.6430942,3.58521302 58.8939276,3.0800846 59.1567094,2.58726899 C59.4194911,2.09445339 59.7181023,1.6570861 60.0525519,1.275154 C60.3870014,0.89322191 60.775196,0.585216776 61.2171472,0.351129363 C61.6590984,0.117041951 62.1786818,-6.56558996e-14 62.7759132,0 C63.7314833,-6.56558996e-14 64.6273169,0.320325339 65.4634408,0.960985626 L64.4242635,4.25051335 Z M78.2247177,0 C79.6819622,-6.56558996e-14 80.9361292,0.252564209 81.9872563,0.757700205 C83.0383835,1.2628362 83.9043559,1.94044749 84.5851997,2.79055441 C85.2660434,3.64066133 85.7677102,4.61395756 86.0902151,5.71047228 C86.4127201,6.806987 86.5739701,7.9589262 86.5739701,9.16632444 C86.5739701,10.3737227 86.4127201,11.5133417 86.0902151,12.5852156 C85.7677102,13.6570895 85.2660434,14.5934252 84.5851997,15.3942505 C83.9043559,16.1950759 83.0443557,16.8295664 82.0051732,17.2977413 C80.9659906,17.7659161 79.7416848,18 78.3322188,18 C76.8749743,18 75.6208073,17.7535959 74.5696801,17.2607803 C73.518553,16.7679647 72.6466083,16.1088337 71.9538199,15.2833676 C71.2610316,14.4579014 70.7474203,13.5030855 70.4129708,12.4188912 C70.0785212,11.3346968 69.911299,10.1889177 69.911299,8.98151951 C69.911299,7.77412127 70.0785212,6.62834218 70.4129708,5.54414784 C70.7474203,4.45995351 71.2550594,3.5051376 71.9359031,2.67967146 C72.6167468,1.85420532 73.4827193,1.20123444 74.5338464,0.72073922 C75.5849736,0.240244004 76.8152517,-6.56558996e-14 78.2247177,0 Z M78.2963851,14.9322382 C78.9891734,14.9322382 79.592368,14.7782356 80.105987,14.4702259 C80.619606,14.1622161 81.0436339,13.7433291 81.3780834,13.2135524 C81.712533,12.6837756 81.9573941,12.0739254 82.1126743,11.3839836 C82.2679544,10.6940417 82.3455933,9.96714961 82.3455933,9.20328542 C82.3455933,8.41478045 82.2619822,7.65708782 82.0947574,6.9301848 C81.9275327,6.20328179 81.670727,5.56263111 81.3243328,5.00821355 C80.9779387,4.453796 80.5419663,4.0102686 80.0164028,3.67761807 C79.4908392,3.34496754 78.8577834,3.17864476 78.1172166,3.17864476 C77.4244282,3.17864476 76.8272058,3.33264733 76.3255315,3.64065708 C75.8238572,3.94866684 75.4117737,4.36139372 75.0892688,4.8788501 C74.7667639,5.39630649 74.5278749,5.99999655 74.3725948,6.6899384 C74.2173146,7.37988025 74.1396757,8.10677236 74.1396757,8.87063655 C74.1396757,9.65914152 74.2173146,10.4168341 74.3725948,11.1437372 C74.5278749,11.8706402 74.7787083,12.517451 75.1251025,13.0841889 C75.4714967,13.6509269 75.907469,14.1006144 76.4330326,14.4332649 C76.9585962,14.7659154 77.5797075,14.9322382 78.2963851,14.9322382 Z M100.840262,0 C102.942517,-6.56558996e-14 104.566962,0.548249138 105.713646,1.64476386 C106.86033,2.74127858 107.433663,4.28746435 107.433663,6.28336756 C107.433663,6.55441614 107.415747,6.84394097 107.379913,7.15195072 C107.344079,7.45996047 107.296301,7.7618055 107.236578,8.05749487 C107.176855,8.35318423 107.105188,8.61806864 107.021576,8.85215606 C106.937964,9.08624347 106.84838,9.27720665 106.752823,9.42505133 L96.3252161,9.42505133 C96.3729946,10.1642747 96.5043835,10.8603663 96.7193868,11.513347 C96.9343901,12.1663277 97.2449457,12.7330571 97.651063,13.2135524 C98.0571803,13.6940476 98.5528749,14.0759739 99.1381616,14.3593429 C99.7234483,14.6427119 100.410254,14.7843943 101.198599,14.7843943 C102.082502,14.7843943 103.020141,14.6119114 104.011545,14.2669405 C105.002949,13.9219695 105.845033,13.4907623 106.537821,12.973306 L107.182828,16.0041068 C106.872267,16.201233 106.490045,16.4168366 106.036149,16.650924 C105.582253,16.8850114 105.068642,17.100615 104.4953,17.2977413 C103.921958,17.4948675 103.306819,17.6611903 102.649864,17.7967146 C101.99291,17.9322389 101.306104,18 100.589427,18 C99.2516283,18 98.069128,17.759756 97.0418901,17.2792608 C96.0146522,16.7987656 95.154652,16.1457947 94.4618636,15.3203285 C93.7690752,14.4948624 93.2435196,13.5400465 92.8851807,12.4558522 C92.5268419,11.3716578 92.3476752,10.2381989 92.3476752,9.05544148 C92.3476752,7.84804324 92.5328142,6.69610405 92.9030976,5.59958932 C93.273381,4.5030746 93.8168534,3.53593848 94.533531,2.69815195 C95.2502086,1.86036542 96.14007,1.20123444 97.2031418,0.72073922 C98.2662135,0.240244004 99.478575,-6.56558996e-14 100.840262,0 Z M100.732761,3.17864476 C99.7294127,3.17864476 98.8753847,3.48048979 98.1706517,4.08418891 C97.4659187,4.68788803 96.9582797,5.50718168 96.6477194,6.54209446 L103.491956,6.54209446 C103.515846,6.46817211 103.533762,6.38193068 103.545707,6.28336756 C103.557652,6.18480444 103.563624,6.06160238 103.563624,5.9137577 C103.563624,5.12525273 103.300846,4.47228185 102.775282,3.95482546 C102.249719,3.43736908 101.568885,3.17864476 100.732761,3.17864476 Z M119.263264,3.03080082 C118.474919,3.03080082 117.85978,3.18480339 117.417829,3.49281314 C116.975877,3.8008229 116.754905,4.23819018 116.754905,4.80492813 C116.754905,5.17453984 116.880322,5.51334548 117.131159,5.82135524 C117.381996,6.12936499 117.913524,6.3819292 118.725759,6.57905544 L121.269951,7.17043121 C122.2733,7.39219823 123.07955,7.71252357 123.688726,8.13141684 C124.297902,8.5503101 124.77568,9.0061577 125.122074,9.49897331 C125.468468,9.99178891 125.701385,10.4969173 125.820831,11.0143737 C125.940278,11.5318301 126,12.0123181 126,12.4558522 C126,13.2443571 125.844722,13.9774093 125.534162,14.6550308 C125.223602,15.3326523 124.781657,15.917862 124.208315,16.4106776 C123.634973,16.9034932 122.942195,17.2915797 122.12996,17.5749487 C121.317726,17.8583176 120.409948,18 119.406599,18 C118.140469,18 116.969913,17.8090368 115.894896,17.4271047 C114.81988,17.0451726 113.95988,16.6201255 113.31487,16.1519507 L114.246546,12.6406571 C115.058781,13.4538028 115.972531,14.0574929 116.987824,14.4517454 C118.003117,14.8459979 118.940757,15.0431211 119.80077,15.0431211 C120.708561,15.0431211 121.401339,14.8398378 121.879124,14.4332649 C122.356909,14.026692 122.595798,13.4661227 122.595798,12.75154 C122.595798,12.3326468 122.476354,11.9815209 122.237461,11.698152 C121.998569,11.414783 121.520791,11.174539 120.804113,10.9774127 L117.364078,10.0903491 C116.551843,9.89322283 115.888927,9.60985811 115.375308,9.24024641 C114.861689,8.8706347 114.455577,8.45790782 114.156962,8.00205339 C113.858346,7.54619895 113.65529,7.07187105 113.547789,6.57905544 C113.440287,6.08623984 113.386537,5.61807203 113.386537,5.17453799 C113.386537,3.52360571 113.947926,2.24846446 115.070721,1.34907598 C116.193516,0.449687495 117.650739,-6.56558996e-14 119.442433,0 C120.374114,-6.56558996e-14 121.377447,0.129362156 122.452464,0.388090349 C123.52748,0.646818542 124.435258,1.0225848 125.175825,1.51540041 L124.136648,4.84188912 C123.658862,4.44763663 122.989973,4.04722996 122.12996,3.64065708 C121.269947,3.23408421 120.314391,3.03080082 119.263264,3.03080082 Z" id="roes" fill="#000F08"></path>
            <path d="M14.238082,5.72895277 L10.7053248,17.5564682 L5.95929746,17.5564682 L0,0.554414784 L4.10370783,0.554414784 L8.38583775,13.6016427 L12.2754391,0.554414784 L16.2007248,0.554414784 L20.0903262,13.6016427 L24.3724561,0.554414784 L28.4047951,0.554414784 L22.4454976,17.5564682 L17.7708391,17.5564682 L14.238082,5.72895277 Z M41.4340675,0 C43.5275637,-6.56558996e-14 45.145241,0.548249138 46.287148,1.64476386 C47.4290551,2.74127858 48,4.28746435 48,6.28336756 C48,6.55441614 47.982158,6.84394097 47.9464734,7.15195072 C47.9107888,7.45996047 47.86321,7.7618055 47.8037357,8.05749487 C47.7442614,8.35318423 47.6728933,8.61806864 47.5896292,8.85215606 C47.5063652,9.08624347 47.417155,9.27720665 47.3219961,9.42505133 L36.9378311,9.42505133 C36.9854105,10.1642747 37.1162521,10.8603663 37.3303596,11.513347 C37.5444672,12.1663277 37.853729,12.7330571 38.2581544,13.2135524 C38.6625798,13.6940476 39.1562093,14.0759739 39.7390577,14.3593429 C40.3219061,14.6427119 41.0058505,14.7843943 41.7909116,14.7843943 C42.6711316,14.7843943 43.6048645,14.6119114 44.5921383,14.2669405 C45.5794121,13.9219695 46.4179874,13.4907623 47.1078896,12.973306 L47.7502091,16.0041068 C47.4409426,16.201233 47.0603126,16.4168366 46.6083078,16.650924 C46.1563029,16.8850114 45.6448314,17.100615 45.0738779,17.2977413 C44.5029244,17.4948675 43.890348,17.6611903 43.2361305,17.7967146 C42.5819129,17.9322389 41.8979684,18 41.1842766,18 C39.8520517,18 38.6744777,17.759756 37.6515194,17.2792608 C36.628561,16.7987656 35.7721436,16.1457947 35.0822414,15.3203285 C34.3923393,14.4948624 33.8689731,13.5400465 33.5121271,12.4558522 C33.1552812,11.3716578 32.9768609,10.2381989 32.9768609,9.05544148 C32.9768609,7.84804324 33.1612285,6.69610405 33.5299693,5.59958932 C33.8987101,4.5030746 34.4399184,3.53593848 35.1536103,2.69815195 C35.8673021,1.86036542 36.7534563,1.20123444 37.8120992,0.72073922 C38.8707422,0.240244004 40.0780529,-6.56558996e-14 41.4340675,0 Z M41.3270142,3.17864476 C40.3278456,3.17864476 39.4773755,3.48048979 38.7755785,4.08418891 C38.0737815,4.68788803 37.5682573,5.50718168 37.2589908,6.54209446 L44.0747142,6.54209446 C44.098504,6.46817211 44.116346,6.38193068 44.1282409,6.28336756 C44.1401357,6.18480444 44.1460831,6.06160238 44.1460831,5.9137577 C44.1460831,5.12525273 43.8844,4.47228185 43.3610259,3.95482546 C42.8376519,3.43736908 42.1596548,3.17864476 41.3270142,3.17864476 Z" id="we" fill="#41851A"></path>
        </g>
    </g>
</svg>